<?xml version="1.0" standalone="no"?>
<!DOCTYPE svg PUBLIC "-//W3C//DTD SVG 20010904//EN"
  "http://www.w3.org/TR/2001/REC-SVG-20010904/DTD/svg10.dtd">
<svg version="1.0" xmlns="http://www.w3.org/2000/svg"
     width="700.000000pt" height="700.000000pt" viewBox="0 0 700.000000 700.000000"
     preserveAspectRatio="xMidYMid meet">
  <g transform="translate(0.000000,700.000000) scale(0.100000,-0.100000)"
     fill="#000000" stroke="none">
    <path d="M0 3500 l0 -3500 3500 0 3500 0 0 3500 0 3500 -3500 0 -3500 0 0
-3500z m3853 2081 c327 -66 641 -238 827 -453 204 -235 295 -455 315 -760 l6
-98 -499 0 -500 0 -4 83 c-3 66 -10 94 -33 140 -71 142 -256 246 -438 247 -78
0 -197 -29 -268 -66 -139 -73 -221 -188 -227 -320 -7 -139 56 -221 240 -311
123 -61 211 -89 425 -137 612 -137 885 -285 1086 -587 135 -206 195 -384 204
-608 7 -158 -7 -267 -49 -396 -146 -452 -556 -789 -1091 -897 -152 -31 -478
-33 -632 -4 -219 40 -465 143 -636 265 -167 120 -327 304 -412 476 -78 156
-110 280 -123 473 l-7 102 500 0 500 0 7 -72 c12 -114 39 -173 117 -251 78
-78 142 -111 261 -135 241 -47 501 80 573 280 75 211 -76 386 -420 487 -38 11
-187 49 -330 85 -299 75 -433 119 -560 184 -226 117 -407 305 -524 547 -132
272 -153 540 -65 820 87 274 296 533 559 695 159 98 353 174 532 210 145 29
142 28 358 25 158 -2 223 -7 308 -24z"/>
  </g>
</svg>
